<svg width="122" height="122" viewBox="0 0 122 122" fill="none" xmlns="http://www.w3.org/2000/svg">
<path d="M83.375 61C83.375 77.8006 80.8205 92.9884 76.7069 103.958C74.6494 109.445 72.2116 113.85 69.5299 116.875C66.8476 119.9 63.964 121.5 61 121.5C58.036 121.5 55.1524 119.9 52.4701 116.875C49.7884 113.85 47.3506 109.445 45.2931 103.958C41.1795 92.9884 38.625 77.8006 38.625 61C38.625 44.1994 41.1795 29.0116 45.2931 18.042C47.3506 12.5554 49.7884 8.15009 52.4701 5.12539C55.1524 2.1001 58.036 0.5 61 0.5C63.964 0.5 66.8476 2.1001 69.5299 5.12539C72.2116 8.15009 74.6494 12.5554 76.7069 18.042C80.8205 29.0116 83.375 44.1994 83.375 61Z" stroke="#909090"/>
<path d="M61 38.625C77.8006 38.625 92.9884 41.1795 103.958 45.2931C109.445 47.3506 113.85 49.7884 116.875 52.4701C119.9 55.1524 121.5 58.036 121.5 61C121.5 63.964 119.9 66.8476 116.875 69.5299C113.85 72.2116 109.445 74.6494 103.958 76.7069C92.9884 80.8205 77.8006 83.375 61 83.375C44.1994 83.375 29.0116 80.8205 18.042 76.7069C12.5554 74.6494 8.15009 72.2116 5.12539 69.5299C2.1001 66.8476 0.5 63.964 0.5 61C0.5 58.036 2.1001 55.1524 5.12539 52.4701C8.15009 49.7884 12.5554 47.3506 18.042 45.2931C29.0116 41.1795 44.1994 38.625 61 38.625Z" stroke="#909090"/>
<path d="M76.8215 45.1785C88.7013 57.0583 97.6344 69.604 102.482 80.2694C104.907 85.6039 106.298 90.4428 106.541 94.4778C106.783 98.5136 105.876 101.684 103.78 103.78C101.684 105.876 98.5136 106.783 94.4778 106.541C90.4428 106.298 85.6039 104.907 80.2694 102.482C69.604 97.6344 57.0583 88.7013 45.1785 76.8215C33.2987 64.9417 24.3656 52.396 19.5177 41.7306C17.0929 36.3961 15.7017 31.5572 15.4592 27.5222C15.2166 23.4864 16.1241 20.3159 18.22 18.22C20.3159 16.1241 23.4864 15.2166 27.5222 15.4592C31.5572 15.7017 36.3961 17.0929 41.7306 19.5177C52.396 24.3656 64.9417 33.2987 76.8215 45.1785Z" stroke="#909090"/>
<path d="M18.22 103.78C16.1241 101.684 15.2166 98.5136 15.4592 94.4778C15.7017 90.4428 17.0929 85.6039 19.5177 80.2694C24.3656 69.604 33.2987 57.0583 45.1785 45.1785C57.0583 33.2987 69.604 24.3656 80.2694 19.5177C85.6039 17.0929 90.4428 15.7017 94.4778 15.4592C98.5136 15.2166 101.684 16.1241 103.78 18.22C105.876 20.3159 106.783 23.4864 106.541 27.5222C106.298 31.5572 104.907 36.3961 102.482 41.7306C97.6344 52.396 88.7013 64.9417 76.8215 76.8215C64.9417 88.7013 52.396 97.6344 41.7306 102.482C36.3961 104.907 31.5572 106.298 27.5222 106.541C23.4864 106.783 20.3159 105.876 18.22 103.78Z" stroke="#909090"/>
</svg>
