<svg width="105" height="16" viewBox="0 0 105 16" fill="none" xmlns="http://www.w3.org/2000/svg">
<g clip-path="url(#clip0_0_377)">
<path d="M22 0H2C0.89543 0 0 0.89543 0 2V14C0 15.1046 0.89543 16 2 16H22C23.1046 16 24 15.1046 24 14V2C24 0.89543 23.1046 0 22 0Z" fill="#252525"/>
<path d="M9 13C11.7614 13 14 10.7614 14 8C14 5.23858 11.7614 3 9 3C6.23858 3 4 5.23858 4 8C4 10.7614 6.23858 13 9 13Z" fill="#EB001B"/>
<path d="M15 13C17.7614 13 20 10.7614 20 8C20 5.23858 17.7614 3 15 3C12.2386 3 10 5.23858 10 8C10 10.7614 12.2386 13 15 13Z" fill="#F79E1B"/>
<path fill-rule="evenodd" clip-rule="evenodd" d="M12 3.99963C13.2144 4.91184 14 6.36418 14 8C14 9.63582 13.2144 11.0882 12 12.0004C10.7856 11.0882 10 9.63582 10 8C10 6.36418 10.7856 4.91184 12 3.99963Z" fill="#FF5F00"/>
</g>
<g clip-path="url(#clip1_0_377)">
<path d="M48.75 0.25H29.25C28.1454 0.25 27.25 1.14543 27.25 2.25V13.75C27.25 14.8546 28.1454 15.75 29.25 15.75H48.75C49.8546 15.75 50.75 14.8546 50.75 13.75V2.25C50.75 1.14543 49.8546 0.25 48.75 0.25Z" fill="white" stroke="black" stroke-opacity="0.2" stroke-width="0.5"/>
<path d="M29.7877 5.91444C29.2646 5.62751 28.6675 5.39674 28 5.23659L28.028 5.11188H30.765C31.136 5.12489 31.437 5.23651 31.5349 5.63071L32.1298 8.46659L32.312 9.32073L33.978 5.11188H35.7768L33.1029 11.2775H31.304L29.7877 5.91444ZM37.1 11.2841H35.3988L36.4628 5.11188H38.1639L37.1 11.2841ZM43.2668 5.26277L43.0354 6.59559L42.8816 6.53004C42.5737 6.40525 42.1674 6.28054 41.6144 6.29371C40.9427 6.29371 40.6415 6.56277 40.6345 6.82546C40.6345 7.11441 40.9989 7.30484 41.5939 7.58725C42.574 8.02719 43.0286 8.56557 43.0218 9.26819C43.0081 10.5486 41.846 11.3761 40.0611 11.3761C39.2979 11.3694 38.5628 11.2181 38.1638 11.0476L38.4019 9.66205L38.6259 9.76066C39.1789 9.99071 39.5428 10.089 40.222 10.089C40.7118 10.089 41.2369 9.89838 41.2436 9.48488C41.2436 9.21565 41.0199 9.01851 40.3617 8.71646C39.7178 8.42087 38.8568 7.92848 38.8708 7.04198C38.8781 5.84042 40.0611 5 41.741 5C42.399 5 42.9312 5.13789 43.2668 5.26277ZM45.5278 9.09749H46.9417C46.8718 8.78889 46.5496 7.31147 46.5496 7.31147L46.4307 6.77964C46.3467 7.00943 46.1999 7.38373 46.2069 7.37056C46.2069 7.37056 45.6678 8.7429 45.5278 9.09749ZM47.6276 5.11188L49 11.284H47.4249C47.4249 11.284 47.2708 10.5748 47.2219 10.3581H45.0378C44.9746 10.5222 44.6808 11.284 44.6808 11.284H42.8958L45.4226 5.62399C45.5977 5.22342 45.906 5.11188 46.3118 5.11188H47.6276Z" fill="#1434CB"/>
</g>
<g clip-path="url(#clip2_0_377)">
<path d="M76 0H56C54.8954 0 54 0.89543 54 2V14C54 15.1046 54.8954 16 56 16H76C77.1046 16 78 15.1046 78 14V2C78 0.89543 77.1046 0 76 0Z" fill="#016FD0"/>
<path fill-rule="evenodd" clip-rule="evenodd" d="M67.7637 13.3938V7.69244L77.9112 7.70155V9.27644L76.7383 10.5298L77.9112 11.7947V13.403H76.0386L75.0434 12.3049L74.0553 13.4072L67.7637 13.3938Z" fill="#FFFFFE"/>
<path fill-rule="evenodd" clip-rule="evenodd" d="M68.4414 12.7688V8.31989H72.2137V9.34477H69.6628V10.0405H72.1529V11.0483H69.6628V11.7316H72.2137V12.7688H68.4414Z" fill="#016FD0"/>
<path fill-rule="evenodd" clip-rule="evenodd" d="M72.1954 12.7688L74.2827 10.5418L72.1953 8.32001H73.811L75.0865 9.73004L76.3656 8.32001H77.9117V8.35501L75.8689 10.5418L77.9117 12.7057V12.7688H76.35L75.0519 11.3446L73.7671 12.7688H72.1954Z" fill="#016FD0"/>
<path fill-rule="evenodd" clip-rule="evenodd" d="M68.2369 2.63196H70.6829L71.5421 4.58281V2.63196H74.5619L75.0827 4.09353L75.6052 2.63196H77.9111V8.33335H65.7246L68.2369 2.63196Z" fill="#FFFFFE"/>
<path fill-rule="evenodd" clip-rule="evenodd" d="M68.7006 3.2514L66.7266 7.69658H68.0805L68.4529 6.80641H70.4708L70.843 7.69658H72.2306L70.2648 3.2514H68.7006ZM68.8702 5.80884L69.4622 4.39377L70.0538 5.80884H68.8702Z" fill="#016FD0"/>
<path fill-rule="evenodd" clip-rule="evenodd" d="M72.2119 7.69575V3.25067L74.115 3.25721L75.0943 5.98994L76.0799 3.25067H77.9115V7.69575L76.7329 7.70619V4.65284L75.6204 7.69575H74.5446L73.4089 4.64241V7.69575H72.2119Z" fill="#016FD0"/>
</g>
<g clip-path="url(#clip3_0_377)">
<path d="M102.997 15.7499L102.999 15.7499C103.954 15.7581 104.738 14.9773 104.75 14.0042L104.75 2.0063C104.746 1.53569 104.559 1.08617 104.23 0.756802C103.901 0.428269 103.459 0.246149 102.997 0.250071L83.0006 0.250062C82.5411 0.246149 82.0986 0.428269 81.7703 0.756802C81.4411 1.08617 81.2538 1.53569 81.25 2.00426L81.25 13.9937C81.2538 14.4643 81.4411 14.9138 81.7703 15.2432C82.0986 15.5717 82.5411 15.7538 83.0028 15.7499H102.997ZM102.996 16.2499C102.996 16.2499 102.995 16.2499 102.995 16.2499L102.997 16.2499H102.996Z" fill="white" stroke="black" stroke-opacity="0.2" stroke-width="0.5"/>
<path d="M93.6123 15.9999H102.997C103.524 16.0043 104.031 15.7993 104.406 15.4299C104.782 15.0605 104.996 14.557 105 14.0303V11.6716C101.456 13.7059 97.6127 15.1668 93.6123 15.9999Z" fill="#F27712"/>
<path d="M104.172 9.29649H103.32L102.36 8.03029H102.269V9.29649H101.573V6.15167H102.6C103.402 6.15167 103.866 6.4827 103.866 7.07856C103.866 7.56684 103.576 7.88132 103.055 7.98063L104.172 9.29649ZM103.146 7.10339C103.146 6.79718 102.914 6.63994 102.484 6.63994H102.269V7.59167H102.467C102.914 7.59167 103.146 7.42615 103.146 7.10339ZM99.1403 6.15167H101.11V6.68132H99.8354V7.38477H101.06V7.9227H99.8354V8.77512H101.11V9.30477H99.1403V6.15167ZM96.9058 9.37925L95.3996 6.14339H96.1609L97.1127 8.26201L98.0727 6.14339H98.8175L97.2947 9.37925H96.9223H96.9058ZM90.6078 9.37098C89.5485 9.37098 88.7209 8.65098 88.7209 7.71581C88.7209 6.80546 89.5651 6.06891 90.6244 6.06891C90.9223 6.06891 91.1706 6.12684 91.4768 6.25925V6.98753C91.2449 6.75971 90.9329 6.63194 90.6078 6.63167C89.9458 6.63167 89.4409 7.11167 89.4409 7.71581C89.4409 8.35305 89.9375 8.80822 90.6409 8.80822C90.9554 8.80822 91.1954 8.70891 91.4768 8.46063V9.18891C91.1623 9.32132 90.8975 9.37098 90.6078 9.37098ZM88.5058 8.33649C88.5058 8.94891 88.0009 9.37098 87.2727 9.37098C86.743 9.37098 86.3623 9.18891 86.0396 8.77512L86.4947 8.38615C86.652 8.66753 86.9168 8.80822 87.2478 8.80822C87.5623 8.80822 87.7858 8.61787 87.7858 8.3696C87.7858 8.22891 87.7196 8.12132 87.5789 8.03856C87.4246 7.96371 87.264 7.90277 87.0989 7.85649C86.4451 7.6496 86.2216 7.42615 86.2216 6.98753C86.2216 6.47443 86.7016 6.08546 87.3306 6.08546C87.7278 6.08546 88.0837 6.2096 88.3816 6.44132L88.0175 6.85512C87.8732 6.6969 87.6689 6.60677 87.4547 6.60684C87.1568 6.60684 86.9416 6.75581 86.9416 6.95443C86.9416 7.11994 87.0658 7.21098 87.4796 7.35167C88.274 7.59994 88.5058 7.83167 88.5058 8.34477V8.33649ZM85.0878 6.15167H85.783V9.30477H85.0878V6.15167ZM82.8534 9.30477H81.8271V6.15167H82.8534C83.9789 6.15167 84.7568 6.79718 84.7568 7.72408C84.7568 8.19581 84.5251 8.6427 84.1196 8.94063C83.772 9.18891 83.383 9.30477 82.8451 9.30477H82.8534ZM83.6644 6.93787C83.4327 6.75581 83.1678 6.6896 82.7127 6.6896H82.5223V8.77512H82.7127C83.1596 8.77512 83.4409 8.69236 83.6644 8.52684C83.9044 8.32822 84.0451 8.03029 84.0451 7.72408C84.0451 7.41787 83.9044 7.12822 83.6644 6.93787Z" fill="black"/>
<path d="M93.414 6.06891C92.5036 6.06891 91.7588 6.79718 91.7588 7.69925C91.7588 8.65925 92.4705 9.37925 93.414 9.37925C94.3409 9.37925 95.0691 8.65098 95.0691 7.72408C95.0691 6.79718 94.3491 6.06891 93.414 6.06891Z" fill="#F27712"/>
</g>
<defs>
<clipPath id="clip0_0_377">
<rect width="24" height="16" fill="white"/>
</clipPath>
<clipPath id="clip1_0_377">
<rect width="24" height="16" fill="white" transform="translate(27)"/>
</clipPath>
<clipPath id="clip2_0_377">
<rect width="24" height="16" fill="white" transform="translate(54)"/>
</clipPath>
<clipPath id="clip3_0_377">
<rect width="24" height="16" fill="white" transform="translate(81)"/>
</clipPath>
</defs>
</svg>
