<svg width="115" height="114" viewBox="0 0 115 114" fill="none" xmlns="http://www.w3.org/2000/svg">
<path d="M57.159 100.491L58.7648 105.433H63.9613L59.7568 108.488L61.3625 113.43L57.159 110.376L52.9545 113.43L54.5603 108.488L50.3557 105.433H55.5522L57.159 100.491Z" fill="#6B6B6A"/>
<path d="M57.159 0.352051L58.7648 5.29513H63.9613L59.7568 8.34927L61.3625 13.2923L57.159 10.2372L52.9545 13.2923L54.5603 8.34927L50.3557 5.29513H55.5522L57.159 0.352051Z" fill="#6B6B6A"/>
<path d="M32.1229 93.7793L33.7286 98.7224H38.9252L34.7206 101.777L36.3264 106.72L32.1229 103.664L27.9183 106.72L29.5241 101.777L25.3196 98.7224H30.5161L32.1229 93.7793Z" fill="#6B6B6A"/>
<path d="M82.1921 7.05811L83.7979 12.0002H88.9944L84.7899 15.0553L86.3957 19.9974L82.1921 16.9433L77.9876 19.9974L79.5934 15.0553L75.3889 12.0002H80.5864L82.1921 7.05811Z" fill="#6B6B6A"/>
<path d="M13.798 75.4565L15.4038 80.3986H20.6003L16.3957 83.4528L18.0025 88.3959L13.798 85.3407L9.59344 88.3959L11.1992 83.4528L6.99469 80.3986H12.1922L13.798 75.4565Z" fill="#6B6B6A"/>
<path d="M100.52 25.3882L102.127 30.3313H107.323L103.119 33.3854L104.725 38.3285L100.52 35.2733L96.3165 38.3285L97.9222 33.3854L93.7177 30.3313H98.9142L100.52 25.3882ZM7.08775 50.4203L8.69452 55.3624H13.891L9.6865 58.4166L11.2923 63.3596L7.08775 60.3045L2.88421 63.3596L4.48999 58.4166L0.285461 55.3624H5.48197L7.08775 50.4203Z" fill="#6B6B6A"/>
<path d="M107.227 50.4204L108.833 55.3625H114.03L109.825 58.4166L111.432 63.3597L107.227 60.3045L103.023 63.3597L104.628 58.4166L100.424 55.3625H105.621L107.227 50.4204Z" fill="#6B6B6A"/>
<path d="M13.798 25.3843L15.4038 30.3264H20.6003L16.3957 33.3805L18.0025 38.3236L13.798 35.2684L9.59344 38.3236L11.1992 33.3805L6.99469 30.3264H12.1922L13.798 25.3843Z" fill="#6B6B6A"/>
<path d="M100.52 75.4526L102.127 80.3947H107.323L103.119 83.4499L104.725 88.3919L100.52 85.3368L96.3165 88.3919L97.9223 83.4499L93.7177 80.3947H98.9142L100.52 75.4526Z" fill="#6B6B6A"/>
<path d="M32.1238 7.05908L33.7296 12.0012H38.9261L34.7216 15.0563L36.3274 19.9984L32.1238 16.9442L27.9193 19.9984L29.5251 15.0563L25.3206 12.0012H30.5171L32.1238 7.05908Z" fill="#6B6B6A"/>
<path d="M82.1931 93.7803L83.7989 98.7233H88.9954L84.7909 101.777L86.3966 106.721L82.1931 103.665L77.9886 106.721L79.5944 101.777L75.3898 98.7233H80.5873L82.1931 93.7803Z" fill="#6B6B6A"/>
</svg>
