<svg width="658" height="548" viewBox="0 0 658 548" fill="none" xmlns="http://www.w3.org/2000/svg">
<g clip-path="url(#clip0_0_649)">
<g clip-path="url(#clip1_0_649)">
<path d="M652.06 3.46509H331.3C330.207 3.46509 329.32 4.35156 329.32 5.44509V271.423C329.32 272.517 330.207 273.403 331.3 273.403H652.06C653.154 273.403 654.04 272.517 654.04 271.423V5.44509C654.04 4.35156 653.154 3.46509 652.06 3.46509Z" stroke="#CACACA" stroke-width="0.99"/>
<path d="M344.763 19.745H342.046L341.331 22H340.319L342.827 14.19H343.993L346.501 22H345.489L344.763 19.745ZM343.399 15.092C343.194 15.994 342.834 17.2517 342.321 18.865H344.488C343.997 17.3323 343.641 16.0747 343.421 15.092H343.399ZM351.054 22H350.031V14.19H352.583C353.537 14.19 354.208 14.4173 354.596 14.872C354.985 15.3267 355.179 15.8693 355.179 16.5C355.179 16.8887 355.091 17.259 354.915 17.611C354.747 17.9557 354.453 18.2417 354.035 18.469C353.625 18.6963 353.078 18.81 352.396 18.81H351.054V22ZM352.418 17.974C353.049 17.974 353.485 17.831 353.727 17.545C353.977 17.259 354.101 16.9143 354.101 16.511C354.101 16.1077 353.984 15.763 353.749 15.477C353.522 15.191 353.115 15.048 352.528 15.048H351.054V17.974H352.418ZM359.876 22H358.853V14.19H361.405C362.358 14.19 363.029 14.4173 363.418 14.872C363.806 15.3267 364.001 15.8693 364.001 16.5C364.001 16.8887 363.913 17.259 363.737 17.611C363.568 17.9557 363.275 18.2417 362.857 18.469C362.446 18.6963 361.9 18.81 361.218 18.81H359.876V22ZM361.24 17.974C361.87 17.974 362.307 17.831 362.549 17.545C362.798 17.259 362.923 16.9143 362.923 16.511C362.923 16.1077 362.805 15.763 362.571 15.477C362.343 15.191 361.936 15.048 361.35 15.048H359.876V17.974H361.24ZM369.852 18.733H368.422V22H367.399V14.19H369.907C370.75 14.19 371.399 14.388 371.854 14.784C372.316 15.18 372.547 15.741 372.547 16.467C372.547 16.995 372.4 17.4423 372.107 17.809C371.814 18.1757 371.407 18.4287 370.886 18.568L372.789 22H371.656L369.852 18.733ZM368.422 17.919H369.863C370.384 17.919 370.78 17.798 371.051 17.556C371.33 17.3067 371.469 16.951 371.469 16.489C371.469 16.0197 371.33 15.664 371.051 15.422C370.78 15.1727 370.384 15.048 369.863 15.048H368.422V17.919ZM378.695 22.187C377.756 22.187 377.045 21.8607 376.561 21.208C376.084 20.548 375.846 19.6277 375.846 18.447V17.743C375.846 16.5623 376.084 15.6457 376.561 14.993C377.045 14.333 377.756 14.003 378.695 14.003C379.634 14.003 380.341 14.333 380.818 14.993C381.302 15.6457 381.544 16.5623 381.544 17.743V18.447C381.544 19.6277 381.302 20.548 380.818 21.208C380.341 21.8607 379.634 22.187 378.695 22.187ZM378.695 21.307C379.304 21.307 379.751 21.076 380.037 20.614C380.33 20.152 380.477 19.4297 380.477 18.447V17.743C380.477 16.7603 380.33 16.038 380.037 15.576C379.751 15.114 379.304 14.883 378.695 14.883C378.086 14.883 377.635 15.114 377.342 15.576C377.056 16.038 376.913 16.7603 376.913 17.743V18.447C376.913 19.4297 377.056 20.152 377.342 20.614C377.635 21.076 378.086 21.307 378.695 21.307ZM387.494 21.098H387.538L387.681 20.493L389.408 14.19H390.497L388.143 22H386.878L384.535 14.19H385.602L387.351 20.493L387.494 21.098ZM398.648 15.07H395.106V17.567H398.461V18.425H395.106V21.12H398.725V22H394.083V14.19H398.648V15.07ZM402.585 14.19H404.873C405.57 14.19 406.167 14.355 406.666 14.685C407.172 15.015 407.553 15.477 407.81 16.071C408.067 16.6577 408.195 17.3287 408.195 18.084C408.195 18.832 408.056 19.503 407.777 20.097C407.506 20.691 407.117 21.1567 406.611 21.494C406.112 21.8313 405.526 22 404.851 22H402.585V14.19ZM404.84 21.142C405.317 21.142 405.727 21.0027 406.072 20.724C406.417 20.4453 406.681 20.075 406.864 19.613C407.047 19.1437 407.139 18.634 407.139 18.084C407.139 17.5193 407.051 17.006 406.875 16.544C406.706 16.082 406.45 15.719 406.105 15.455C405.768 15.1837 405.353 15.048 404.862 15.048H403.608V21.142H404.84Z" fill="black"/>
<path d="M343.07 36.17C342.237 36.17 341.607 35.87 341.18 35.27C340.753 34.6633 340.54 33.81 340.54 32.71V32.19C340.54 31.0967 340.763 30.2467 341.21 29.64C341.663 29.0333 342.31 28.73 343.15 28.73C344.637 28.73 345.47 29.5633 345.65 31.23L344.72 31.38C344.68 30.7867 344.527 30.33 344.26 30.01C343.993 29.69 343.62 29.53 343.14 29.53C342.58 29.53 342.167 29.7433 341.9 30.17C341.633 30.59 341.5 31.2467 341.5 32.14V32.65C341.5 33.55 341.637 34.23 341.91 34.69C342.19 35.1433 342.6 35.37 343.14 35.37C343.627 35.37 344 35.21 344.26 34.89C344.527 34.57 344.68 34.11 344.72 33.51L345.64 33.7C345.56 34.4467 345.307 35.0467 344.88 35.5C344.453 35.9467 343.85 36.17 343.07 36.17ZM353.401 29.7H350.181V31.97H353.231V32.75H350.181V35.2H353.471V36H349.251V28.9H353.401V29.7ZM359.482 33.03H358.182V36H357.252V28.9H359.532C360.299 28.9 360.889 29.08 361.302 29.44C361.722 29.8 361.932 30.31 361.932 30.97C361.932 31.45 361.799 31.8567 361.532 32.19C361.266 32.5233 360.896 32.7533 360.422 32.88L362.152 36H361.122L359.482 33.03ZM358.182 32.29H359.492C359.966 32.29 360.326 32.18 360.572 31.96C360.826 31.7333 360.952 31.41 360.952 30.99C360.952 30.5633 360.826 30.24 360.572 30.02C360.326 29.7933 359.966 29.68 359.492 29.68H358.182V32.29ZM370.394 28.9V29.7H368.164V36H367.224V29.7H364.994V28.9H370.394ZM376.365 29.65V35.25H378.145V36H373.665V35.25H375.435V29.65H373.665V28.9H378.145V29.65H376.365ZM386.506 29.7H383.086V31.97H386.236V32.77H383.086V36H382.156V28.9H386.506V29.7ZM392.767 29.65V35.25H394.547V36H390.067V35.25H391.837V29.65H390.067V28.9H394.547V29.65H392.767ZM402.608 29.7H399.388V31.97H402.438V32.75H399.388V35.2H402.678V36H398.458V28.9H402.608V29.7ZM406.369 28.9H408.449C409.083 28.9 409.626 29.05 410.079 29.35C410.539 29.65 410.886 30.07 411.119 30.61C411.353 31.1433 411.469 31.7533 411.469 32.44C411.469 33.12 411.343 33.73 411.089 34.27C410.843 34.81 410.489 35.2333 410.029 35.54C409.576 35.8467 409.043 36 408.429 36H406.369V28.9ZM408.419 35.22C408.853 35.22 409.226 35.0933 409.539 34.84C409.853 34.5867 410.093 34.25 410.259 33.83C410.426 33.4033 410.509 32.94 410.509 32.44C410.509 31.9267 410.429 31.46 410.269 31.04C410.116 30.62 409.883 30.29 409.569 30.05C409.263 29.8033 408.886 29.68 408.439 29.68H407.299V35.22H408.419ZM427.802 28.9V29.7H425.572V36H424.632V29.7H422.402V28.9H427.802ZM435.413 29.7H432.193V31.97H435.243V32.75H432.193V35.2H435.483V36H431.263V28.9H435.413V29.7ZM441.484 36.17C440.651 36.17 440.021 35.87 439.594 35.27C439.167 34.6633 438.954 33.81 438.954 32.71V32.19C438.954 31.0967 439.177 30.2467 439.624 29.64C440.077 29.0333 440.724 28.73 441.564 28.73C443.051 28.73 443.884 29.5633 444.064 31.23L443.134 31.38C443.094 30.7867 442.941 30.33 442.674 30.01C442.407 29.69 442.034 29.53 441.554 29.53C440.994 29.53 440.581 29.7433 440.314 30.17C440.047 30.59 439.914 31.2467 439.914 32.14V32.65C439.914 33.55 440.051 34.23 440.324 34.69C440.604 35.1433 441.014 35.37 441.554 35.37C442.041 35.37 442.414 35.21 442.674 34.89C442.941 34.57 443.094 34.11 443.134 33.51L444.054 33.7C443.974 34.4467 443.721 35.0467 443.294 35.5C442.867 35.9467 442.264 36.17 441.484 36.17ZM452.005 36H451.075V32.76H448.355V36H447.425V28.9H448.355V31.98H451.075V28.9H452.005V36ZM466.198 36.17C465.398 36.17 464.781 35.9633 464.348 35.55C463.921 35.1367 463.661 34.6067 463.568 33.96L464.468 33.78C464.554 34.2533 464.738 34.64 465.018 34.94C465.298 35.24 465.688 35.39 466.188 35.39C466.588 35.39 466.928 35.3033 467.208 35.13C467.494 34.9567 467.638 34.6667 467.638 34.26C467.638 33.84 467.534 33.5433 467.328 33.37C467.128 33.19 466.848 33.05 466.488 32.95L465.538 32.7C464.998 32.5533 464.571 32.32 464.258 32C463.944 31.6733 463.788 31.25 463.788 30.73C463.788 30.3767 463.881 30.0467 464.068 29.74C464.254 29.4333 464.518 29.19 464.858 29.01C465.204 28.8233 465.601 28.73 466.048 28.73C466.748 28.73 467.321 28.89 467.768 29.21C468.214 29.53 468.471 30.0333 468.538 30.72L467.648 30.98C467.608 30.46 467.441 30.0867 467.148 29.86C466.861 29.6267 466.504 29.51 466.078 29.51C465.604 29.51 465.261 29.6233 465.048 29.85C464.841 30.07 464.738 30.3367 464.738 30.65C464.738 30.95 464.838 31.2033 465.038 31.41C465.244 31.61 465.508 31.7567 465.828 31.85L466.738 32.09C467.311 32.2433 467.761 32.4667 468.088 32.76C468.421 33.0533 468.588 33.51 468.588 34.13C468.588 34.4833 468.501 34.8167 468.328 35.13C468.161 35.4367 467.898 35.6867 467.538 35.88C467.178 36.0733 466.731 36.17 466.198 36.17ZM477.009 28.9V29.7H474.779V36H473.839V29.7H471.609V28.9H477.009ZM483.75 33.95H481.28L480.63 36H479.71L481.99 28.9H483.05L485.33 36H484.41L483.75 33.95ZM482.51 29.72C482.323 30.54 481.997 31.6833 481.53 33.15H483.5C483.053 31.7567 482.73 30.6133 482.53 29.72H482.51ZM490.691 36.17C489.858 36.17 489.228 35.87 488.801 35.27C488.374 34.6633 488.161 33.81 488.161 32.71V32.19C488.161 31.0967 488.384 30.2467 488.831 29.64C489.284 29.0333 489.931 28.73 490.771 28.73C492.258 28.73 493.091 29.5633 493.271 31.23L492.341 31.38C492.301 30.7867 492.148 30.33 491.881 30.01C491.614 29.69 491.241 29.53 490.761 29.53C490.201 29.53 489.788 29.7433 489.521 30.17C489.254 30.59 489.121 31.2467 489.121 32.14V32.65C489.121 33.55 489.258 34.23 489.531 34.69C489.811 35.1433 490.221 35.37 490.761 35.37C491.248 35.37 491.621 35.21 491.881 34.89C492.148 34.57 492.301 34.11 492.341 33.51L493.261 33.7C493.181 34.4467 492.928 35.0467 492.501 35.5C492.074 35.9467 491.471 36.17 490.691 36.17ZM498.552 32.36L497.592 33.54V36H496.662V28.9H497.592V32.4L500.272 28.9H501.362L499.202 31.7L501.592 36H500.512L498.552 32.36ZM507.203 36.17C506.403 36.17 505.787 35.9633 505.353 35.55C504.927 35.1367 504.667 34.6067 504.573 33.96L505.473 33.78C505.56 34.2533 505.743 34.64 506.023 34.94C506.303 35.24 506.693 35.39 507.193 35.39C507.593 35.39 507.933 35.3033 508.213 35.13C508.5 34.9567 508.643 34.6667 508.643 34.26C508.643 33.84 508.54 33.5433 508.333 33.37C508.133 33.19 507.853 33.05 507.493 32.95L506.543 32.7C506.003 32.5533 505.577 32.32 505.263 32C504.95 31.6733 504.793 31.25 504.793 30.73C504.793 30.3767 504.887 30.0467 505.073 29.74C505.26 29.4333 505.523 29.19 505.863 29.01C506.21 28.8233 506.607 28.73 507.053 28.73C507.753 28.73 508.327 28.89 508.773 29.21C509.22 29.53 509.477 30.0333 509.543 30.72L508.653 30.98C508.613 30.46 508.447 30.0867 508.153 29.86C507.867 29.6267 507.51 29.51 507.083 29.51C506.61 29.51 506.267 29.6233 506.053 29.85C505.847 30.07 505.743 30.3367 505.743 30.65C505.743 30.95 505.843 31.2033 506.043 31.41C506.25 31.61 506.513 31.7567 506.833 31.85L507.743 32.09C508.317 32.2433 508.767 32.4667 509.093 32.76C509.427 33.0533 509.593 33.51 509.593 34.13C509.593 34.4833 509.507 34.8167 509.333 35.13C509.167 35.4367 508.903 35.6867 508.543 35.88C508.183 36.0733 507.737 36.17 507.203 36.17Z" fill="#6B6B6A"/>
<path d="M514.375 143C514.375 159.801 511.82 174.988 507.707 185.958C505.649 191.445 503.212 195.85 500.53 198.875C497.848 201.9 494.964 203.5 492 203.5C489.036 203.5 486.152 201.9 483.47 198.875C480.788 195.85 478.351 191.445 476.293 185.958C472.18 174.988 469.625 159.801 469.625 143C469.625 126.199 472.18 111.012 476.293 100.042C478.351 94.5554 480.788 90.1501 483.47 87.1254C486.152 84.1001 489.036 82.5 492 82.5C494.964 82.5 497.848 84.1001 500.53 87.1254C503.212 90.1501 505.649 94.5554 507.707 100.042C511.82 111.012 514.375 126.199 514.375 143Z" stroke="#909090"/>
<path d="M492 120.625C508.801 120.625 523.988 123.18 534.958 127.293C540.445 129.351 544.85 131.788 547.875 134.47C550.9 137.152 552.5 140.036 552.5 143C552.5 145.964 550.9 148.848 547.875 151.53C544.85 154.212 540.445 156.649 534.958 158.707C523.988 162.82 508.801 165.375 492 165.375C475.199 165.375 460.012 162.82 449.042 158.707C443.555 156.649 439.15 154.212 436.125 151.53C433.1 148.848 431.5 145.964 431.5 143C431.5 140.036 433.1 137.152 436.125 134.47C439.15 131.788 443.555 129.351 449.042 127.293C460.012 123.18 475.199 120.625 492 120.625Z" stroke="#909090"/>
<path d="M507.822 127.178C519.701 139.058 528.634 151.604 533.482 162.269C535.907 167.604 537.298 172.443 537.541 176.478C537.783 180.514 536.876 183.684 534.78 185.78C532.684 187.876 529.514 188.783 525.478 188.541C521.443 188.298 516.604 186.907 511.269 184.482C500.604 179.634 488.058 170.701 476.178 158.822C464.299 146.942 455.366 134.396 450.518 123.731C448.093 118.396 446.702 113.557 446.459 109.522C446.217 105.486 447.124 102.316 449.22 100.22C451.316 98.1241 454.486 97.2166 458.522 97.4592C462.557 97.7017 467.396 99.0929 472.731 101.518C483.396 106.366 495.942 115.299 507.822 127.178Z" stroke="#909090"/>
<path d="M449.22 185.78C447.124 183.684 446.217 180.514 446.459 176.478C446.702 172.443 448.093 167.604 450.518 162.269C455.366 151.604 464.299 139.058 476.178 127.178C488.058 115.299 500.604 106.366 511.269 101.518C516.604 99.0929 521.443 97.7017 525.478 97.4592C529.514 97.2166 532.684 98.1241 534.78 100.22C536.876 102.316 537.783 105.486 537.541 109.522C537.298 113.557 535.907 118.396 533.482 123.731C528.634 134.396 519.701 146.942 507.822 158.822C495.942 170.701 483.396 179.634 472.731 184.482C467.396 186.907 462.557 188.298 458.522 188.541C454.486 188.783 451.316 187.876 449.22 185.78Z" stroke="#909090"/>
<path d="M4.60004 5.44484C4.60004 4.91972 4.80864 4.41609 5.17997 4.04477C5.55129 3.67345 6.05491 3.46484 6.58004 3.46484H327.34C327.865 3.46484 328.369 3.67345 328.74 4.04477C329.111 4.41609 329.32 4.91972 329.32 5.44484V271.423C329.32 271.948 329.111 272.452 328.74 272.823C328.369 273.195 327.865 273.403 327.34 273.403H6.58004C6.05491 273.403 5.55129 273.195 5.17997 272.823C4.80864 272.452 4.60004 271.948 4.60004 271.423V5.44484Z" fill="#292929"/>
<path d="M18.498 22.187C17.618 22.187 16.9397 21.9597 16.463 21.505C15.9937 21.0503 15.7077 20.4673 15.605 19.756L16.595 19.558C16.6903 20.0787 16.892 20.504 17.2 20.834C17.508 21.164 17.937 21.329 18.487 21.329C18.927 21.329 19.301 21.2337 19.609 21.043C19.9243 20.8523 20.082 20.5333 20.082 20.086C20.082 19.624 19.9683 19.2977 19.741 19.107C19.521 18.909 19.213 18.755 18.817 18.645L17.772 18.37C17.178 18.2087 16.7087 17.952 16.364 17.6C16.0193 17.2407 15.847 16.775 15.847 16.203C15.847 15.8143 15.9497 15.4513 16.155 15.114C16.3603 14.7767 16.65 14.509 17.024 14.311C17.4053 14.1057 17.8417 14.003 18.333 14.003C19.103 14.003 19.7337 14.179 20.225 14.531C20.7163 14.883 20.9987 15.4367 21.072 16.192L20.093 16.478C20.049 15.906 19.8657 15.4953 19.543 15.246C19.2277 14.9893 18.8353 14.861 18.366 14.861C17.8453 14.861 17.4677 14.9857 17.233 15.235C17.0057 15.477 16.892 15.7703 16.892 16.115C16.892 16.445 17.002 16.7237 17.222 16.951C17.4493 17.171 17.739 17.3323 18.091 17.435L19.092 17.699C19.7227 17.8677 20.2177 18.1133 20.577 18.436C20.9437 18.7587 21.127 19.261 21.127 19.943C21.127 20.3317 21.0317 20.6983 20.841 21.043C20.6577 21.3803 20.368 21.6553 19.972 21.868C19.576 22.0807 19.0847 22.187 18.498 22.187ZM29.5413 15.07H25.9993V17.567H29.3543V18.425H25.9993V21.12H29.6183V22H24.9763V14.19H29.5413V15.07ZM36.0196 22.187C35.1029 22.187 34.4099 21.857 33.9406 21.197C33.4712 20.5297 33.2366 19.591 33.2366 18.381V17.809C33.2366 16.6063 33.4822 15.6713 33.9736 15.004C34.4722 14.3367 35.1836 14.003 36.1076 14.003C37.7429 14.003 38.6596 14.9197 38.8576 16.753L37.8346 16.918C37.7906 16.2653 37.6219 15.763 37.3286 15.411C37.0352 15.059 36.6246 14.883 36.0966 14.883C35.4806 14.883 35.0259 15.1177 34.7326 15.587C34.4392 16.049 34.2926 16.7713 34.2926 17.754V18.315C34.2926 19.305 34.4429 20.053 34.7436 20.559C35.0516 21.0577 35.5026 21.307 36.0966 21.307C36.6319 21.307 37.0426 21.131 37.3286 20.779C37.6219 20.427 37.7906 19.921 37.8346 19.261L38.8466 19.47C38.7586 20.2913 38.4799 20.9513 38.0106 21.45C37.5412 21.9413 36.8776 22.187 36.0196 22.187ZM43.2349 14.19V19.393C43.2349 19.987 43.3779 20.4563 43.6639 20.801C43.9499 21.1383 44.3642 21.307 44.9069 21.307C45.4569 21.307 45.8602 21.1383 46.1169 20.801C46.3809 20.4637 46.5129 19.9943 46.5129 19.393V14.19H47.5359V19.393C47.5359 20.2437 47.3159 20.922 46.8759 21.428C46.4432 21.934 45.7869 22.187 44.9069 22.187C44.0269 22.187 43.3559 21.934 42.8939 21.428C42.4392 20.9147 42.2119 20.2363 42.2119 19.393V14.19H43.2349ZM53.6732 18.733H52.2432V22H51.2202V14.19H53.7282C54.5715 14.19 55.2205 14.388 55.6752 14.784C56.1372 15.18 56.3682 15.741 56.3682 16.467C56.3682 16.995 56.2215 17.4423 55.9282 17.809C55.6348 18.1757 55.2278 18.4287 54.7072 18.568L56.6102 22H55.4772L53.6732 18.733ZM52.2432 17.919H53.6842C54.2048 17.919 54.6008 17.798 54.8722 17.556C55.1508 17.3067 55.2902 16.951 55.2902 16.489C55.2902 16.0197 55.1508 15.664 54.8722 15.422C54.6008 15.1727 54.2048 15.048 53.6842 15.048H52.2432V17.919ZM64.8264 15.07H61.2844V17.567H64.6394V18.425H61.2844V21.12H64.9034V22H60.2614V14.19H64.8264V15.07Z" fill="white"/>
<path d="M18.07 36.17C17.2367 36.17 16.6067 35.87 16.18 35.27C15.7533 34.6633 15.54 33.81 15.54 32.71V32.19C15.54 31.0967 15.7633 30.2467 16.21 29.64C16.6633 29.0333 17.31 28.73 18.15 28.73C19.6367 28.73 20.47 29.5633 20.65 31.23L19.72 31.38C19.68 30.7867 19.5267 30.33 19.26 30.01C18.9933 29.69 18.62 29.53 18.14 29.53C17.58 29.53 17.1667 29.7433 16.9 30.17C16.6333 30.59 16.5 31.2467 16.5 32.14V32.65C16.5 33.55 16.6367 34.23 16.91 34.69C17.19 35.1433 17.6 35.37 18.14 35.37C18.6267 35.37 19 35.21 19.26 34.89C19.5267 34.57 19.68 34.11 19.72 33.51L20.64 33.7C20.56 34.4467 20.3067 35.0467 19.88 35.5C19.4533 35.9467 18.85 36.17 18.07 36.17ZM26.3012 36.17C25.4478 36.17 24.8012 35.8733 24.3612 35.28C23.9278 34.68 23.7112 33.8433 23.7112 32.77V32.13C23.7112 31.0567 23.9278 30.2233 24.3612 29.63C24.8012 29.03 25.4478 28.73 26.3012 28.73C27.1545 28.73 27.7978 29.03 28.2312 29.63C28.6712 30.2233 28.8912 31.0567 28.8912 32.13V32.77C28.8912 33.8433 28.6712 34.68 28.2312 35.28C27.7978 35.8733 27.1545 36.17 26.3012 36.17ZM26.3012 35.37C26.8545 35.37 27.2612 35.16 27.5212 34.74C27.7878 34.32 27.9212 33.6633 27.9212 32.77V32.13C27.9212 31.2367 27.7878 30.58 27.5212 30.16C27.2612 29.74 26.8545 29.53 26.3012 29.53C25.7478 29.53 25.3378 29.74 25.0712 30.16C24.8112 30.58 24.6812 31.2367 24.6812 32.13V32.77C24.6812 33.6633 24.8112 34.32 25.0712 34.74C25.3378 35.16 25.7478 35.37 26.3012 35.37ZM34.9323 34.3H34.0723L33.4523 31.52C33.399 31.3067 33.339 31.01 33.2723 30.63C33.2057 30.25 33.159 29.9367 33.1323 29.69H33.0723C33.0857 30.29 33.0923 30.9233 33.0923 31.59V36H32.2123V28.9H33.5623L34.3623 32.61L34.4723 33.24H34.5323L34.6423 32.61L35.4423 28.9H36.7923V36H35.9123V31.59C35.9123 30.9233 35.919 30.29 35.9323 29.69H35.8723C35.8457 29.9367 35.799 30.25 35.7323 30.63C35.6657 31.01 35.6057 31.3067 35.5523 31.52L34.9323 34.3ZM43.1335 34.3H42.2735L41.6535 31.52C41.6002 31.3067 41.5402 31.01 41.4735 30.63C41.4068 30.25 41.3602 29.9367 41.3335 29.69H41.2735C41.2868 30.29 41.2935 30.9233 41.2935 31.59V36H40.4135V28.9H41.7635L42.5635 32.61L42.6735 33.24H42.7335L42.8435 32.61L43.6435 28.9H44.9935V36H44.1135V31.59C44.1135 30.9233 44.1202 30.29 44.1335 29.69H44.0735C44.0468 29.9367 44.0002 30.25 43.9335 30.63C43.8668 31.01 43.8068 31.3067 43.7535 31.52L43.1335 34.3ZM49.4147 28.9V33.63C49.4147 34.17 49.5447 34.5967 49.8047 34.91C50.0647 35.2167 50.4414 35.37 50.9347 35.37C51.4347 35.37 51.8014 35.2167 52.0347 34.91C52.2747 34.6033 52.3947 34.1767 52.3947 33.63V28.9H53.3247V33.63C53.3247 34.4033 53.1247 35.02 52.7247 35.48C52.3314 35.94 51.7347 36.17 50.9347 36.17C50.1347 36.17 49.5247 35.94 49.1047 35.48C48.6914 35.0133 48.4847 34.3967 48.4847 33.63V28.9H49.4147ZM60.1259 33.73C60.2925 34.1233 60.4059 34.4333 60.4659 34.66H60.4859C60.4725 34.5 60.4659 34.2467 60.4659 33.9V28.9H61.3959V36H60.3059L58.0759 30.89C58.0025 30.73 57.9359 30.5633 57.8759 30.39C57.8159 30.2167 57.7759 30.1033 57.7559 30.05H57.7259C57.7392 30.1767 57.7459 30.38 57.7459 30.66V36H56.8159V28.9H58.0359L60.1259 33.73ZM67.767 29.65V35.25H69.547V36H65.067V35.25H66.837V29.65H65.067V28.9H69.547V29.65H67.767ZM75.4782 36.17C74.6449 36.17 74.0149 35.87 73.5882 35.27C73.1615 34.6633 72.9482 33.81 72.9482 32.71V32.19C72.9482 31.0967 73.1715 30.2467 73.6182 29.64C74.0715 29.0333 74.7182 28.73 75.5582 28.73C77.0449 28.73 77.8782 29.5633 78.0582 31.23L77.1282 31.38C77.0882 30.7867 76.9349 30.33 76.6682 30.01C76.4015 29.69 76.0282 29.53 75.5482 29.53C74.9882 29.53 74.5749 29.7433 74.3082 30.17C74.0415 30.59 73.9082 31.2467 73.9082 32.14V32.65C73.9082 33.55 74.0449 34.23 74.3182 34.69C74.5982 35.1433 75.0082 35.37 75.5482 35.37C76.0349 35.37 76.4082 35.21 76.6682 34.89C76.9349 34.57 77.0882 34.11 77.1282 33.51L78.0482 33.7C77.9682 34.4467 77.7149 35.0467 77.2882 35.5C76.8615 35.9467 76.2582 36.17 75.4782 36.17ZM84.9394 33.95H82.4694L81.8194 36H80.8994L83.1794 28.9H84.2394L86.5194 36H85.5994L84.9394 33.95ZM83.6994 29.72C83.5127 30.54 83.186 31.6833 82.7194 33.15H84.6894C84.2427 31.7567 83.9194 30.6133 83.7194 29.72H83.6994ZM94.6005 28.9V29.7H92.3705V36H91.4305V29.7H89.2005V28.9H94.6005ZM100.572 29.65V35.25H102.352V36H97.8717V35.25H99.6417V29.65H97.8717V28.9H102.352V29.65H100.572ZM108.313 36.17C107.46 36.17 106.813 35.8733 106.373 35.28C105.94 34.68 105.723 33.8433 105.723 32.77V32.13C105.723 31.0567 105.94 30.2233 106.373 29.63C106.813 29.03 107.46 28.73 108.313 28.73C109.166 28.73 109.81 29.03 110.243 29.63C110.683 30.2233 110.903 31.0567 110.903 32.13V32.77C110.903 33.8433 110.683 34.68 110.243 35.28C109.81 35.8733 109.166 36.17 108.313 36.17ZM108.313 35.37C108.866 35.37 109.273 35.16 109.533 34.74C109.8 34.32 109.933 33.6633 109.933 32.77V32.13C109.933 31.2367 109.8 30.58 109.533 30.16C109.273 29.74 108.866 29.53 108.313 29.53C107.76 29.53 107.35 29.74 107.083 30.16C106.823 30.58 106.693 31.2367 106.693 32.13V32.77C106.693 33.6633 106.823 34.32 107.083 34.74C107.35 35.16 107.76 35.37 108.313 35.37ZM117.534 33.73C117.701 34.1233 117.814 34.4333 117.874 34.66H117.894C117.881 34.5 117.874 34.2467 117.874 33.9V28.9H118.804V36H117.714L115.484 30.89C115.411 30.73 115.344 30.5633 115.284 30.39C115.224 30.2167 115.184 30.1033 115.164 30.05H115.134C115.147 30.1767 115.154 30.38 115.154 30.66V36H114.224V28.9H115.444L117.534 33.73Z" fill="#6B6B6A"/>
<path d="M4.60004 5.44484C4.60004 4.91972 4.80864 4.41609 5.17997 4.04477C5.55129 3.67345 6.05491 3.46484 6.58004 3.46484H327.34C327.865 3.46484 328.369 3.67345 328.74 4.04477C329.111 4.41609 329.32 4.91972 329.32 5.44484V271.423C329.32 271.948 329.111 272.452 328.74 272.823C328.369 273.195 327.865 273.403 327.34 273.403H6.58004C6.05491 273.403 5.55129 273.195 5.17997 272.823C4.80864 272.452 4.60004 271.948 4.60004 271.423V5.44484Z" stroke="#454544" stroke-width="0.99"/>
<path d="M228.835 158.895C237.871 132.157 228.835 86.6249 228.835 86.6249C228.835 86.6249 209.759 86.2299 197.898 83.6549C185.381 80.9373 166.96 72.7649 166.96 72.7649V221.76C166.96 221.76 193.363 210.876 205.818 198.247C218.318 185.57 223.135 175.762 228.835 158.895Z" fill="#454544"/>
<mask id="mask0_0_649" style="mask-type:alpha" maskUnits="userSpaceOnUse" x="103" y="72" width="64" height="150">
<path d="M107.56 86.6249C107.56 86.6249 98.8757 132.041 107.56 158.895C112.965 175.607 117.231 185.523 129.34 198.247C141.283 210.798 166.96 221.76 166.96 221.76V72.7649C166.96 72.7649 149.311 80.9364 137.26 83.6549C125.89 86.22 107.56 86.6249 107.56 86.6249Z" fill="#6B6B6A"/>
</mask>
<g mask="url(#mask0_0_649)">
<path d="M-62.2557 230.699L105.752 62.6907M-58.5877 230.699L109.42 62.6907M-54.9188 230.699L113.089 62.6907M-51.2508 230.699L116.758 62.6907M-47.5819 230.699L120.427 62.6907M-43.9139 230.699L124.095 62.6907M-40.245 230.699L127.764 62.6907M-36.5771 230.699L131.432 62.6907M-32.9081 230.699L135.101 62.6907M-29.2392 230.699L138.77 62.6907M-25.5712 230.699L142.438 62.6907M-21.9023 230.699L146.107 62.6907M-18.2333 230.699L149.775 62.6907M-14.5644 230.699L153.444 62.6907M-10.8965 230.699L157.112 62.6907M-7.22752 230.699L160.78 62.6907M-3.55858 230.699L164.449 62.6907M0.109373 230.699L168.117 62.6907M3.77831 230.699L171.787 62.6907M7.44626 230.699L175.455 62.6907M11.1152 230.699L179.124 62.6907M14.7832 230.699L182.792 62.6907M18.4521 230.699L186.461 62.6907M22.12 230.699L190.129 62.6907M25.789 230.699L193.798 62.6907M29.4579 230.699L197.467 62.6907M33.1259 230.699L201.135 62.6907M36.7958 230.699L204.804 62.6907M40.4638 230.699L208.472 62.6907M44.1327 230.699L212.141 62.6907M47.8006 230.699L215.809 62.6907M51.4696 230.699L219.478 62.6907M55.1375 230.699L223.145 62.6907M58.8065 230.699L226.815 62.6907M62.4754 230.699L230.484 62.6907M66.1434 230.699L234.152 62.6907M69.8123 230.699L237.821 62.6907M73.4802 230.699L241.489 62.6907M77.1492 230.699L245.158 62.6907M80.8172 230.699L248.826 62.6907M84.4861 230.699L252.495 62.6907M88.155 230.699L256.164 62.6907M91.824 230.699L259.832 62.6907M95.4929 230.699L263.501 62.6907M99.1609 230.699L267.169 62.6907M102.83 230.699L270.838 62.6907M106.498 230.699L274.506 62.6907M110.167 230.699L278.175 62.6907M113.836 230.699L281.844 62.6907M117.504 230.699L285.513 62.6907M121.173 230.699L289.181 62.6907M124.84 230.699L292.849 62.6907M128.509 230.699L296.518 62.6907M132.177 230.699L300.186 62.6907M135.846 230.699L303.855 62.6907M139.514 230.699L307.523 62.6907M143.183 230.699L311.192 62.6907M146.852 230.699L314.861 62.6907M150.521 230.699L318.529 62.6907M154.19 230.699L322.198 62.6907M157.858 230.699L325.866 62.6907M161.527 230.699L329.535 62.6907M165.195 230.699L333.203 62.6907" stroke="#6B6B6A" stroke-width="0.495"/>
</g>
<path d="M327.34 273.403H6.58004C5.48651 273.403 4.60004 274.29 4.60004 275.383V541.362C4.60004 542.455 5.48651 543.342 6.58004 543.342H327.34C328.434 543.342 329.32 542.455 329.32 541.362V275.383C329.32 274.29 328.434 273.403 327.34 273.403Z" stroke="#CACACA" stroke-width="0.99"/>
<path d="M18.245 292.187C17.3943 292.187 16.738 291.846 16.276 291.164C15.8213 290.475 15.594 289.569 15.594 288.447V287.677C15.594 286.526 15.8397 285.627 16.331 284.982C16.8297 284.329 17.53 284.003 18.432 284.003C19.29 284.003 19.9023 284.245 20.269 284.729C20.643 285.206 20.874 285.752 20.962 286.368L19.961 286.511C19.9097 286.086 19.7593 285.708 19.51 285.378C19.268 285.048 18.8977 284.883 18.399 284.883C17.827 284.883 17.3943 285.107 17.101 285.554C16.8077 286.001 16.661 286.768 16.661 287.853V288.282C16.661 290.291 17.2403 291.296 18.399 291.296C18.8317 291.296 19.1727 291.179 19.422 290.944C19.6787 290.702 19.8583 290.423 19.961 290.108C20.0637 289.785 20.115 289.485 20.115 289.206V288.744H18.157V287.919H21.05V292H20.346L20.192 290.856C19.8327 291.743 19.1837 292.187 18.245 292.187ZM24.6573 284.19H26.9453C27.642 284.19 28.2396 284.355 28.7383 284.685C29.2443 285.015 29.6256 285.477 29.8823 286.071C30.139 286.658 30.2673 287.329 30.2673 288.084C30.2673 288.832 30.128 289.503 29.8493 290.097C29.578 290.691 29.1893 291.157 28.6833 291.494C28.1846 291.831 27.598 292 26.9233 292H24.6573V284.19ZM26.9123 291.142C27.389 291.142 27.7996 291.003 28.1443 290.724C28.489 290.445 28.753 290.075 28.9363 289.613C29.1196 289.144 29.2113 288.634 29.2113 288.084C29.2113 287.519 29.1233 287.006 28.9473 286.544C28.7786 286.082 28.522 285.719 28.1773 285.455C27.84 285.184 27.4256 285.048 26.9343 285.048H25.6803V291.142H26.9123ZM34.8756 292H33.8526V284.19H36.4046C37.3579 284.19 38.0289 284.417 38.4176 284.872C38.8062 285.327 39.0006 285.869 39.0006 286.5C39.0006 286.889 38.9126 287.259 38.7366 287.611C38.5679 287.956 38.2746 288.242 37.8566 288.469C37.4459 288.696 36.8996 288.81 36.2176 288.81H34.8756V292ZM36.2396 287.974C36.8702 287.974 37.3066 287.831 37.5486 287.545C37.7979 287.259 37.9226 286.914 37.9226 286.511C37.9226 286.108 37.8052 285.763 37.5706 285.477C37.3432 285.191 36.9362 285.048 36.3496 285.048H34.8756V287.974H36.2396ZM44.8519 288.733H43.4219V292H42.3989V284.19H44.9069C45.7502 284.19 46.3992 284.388 46.8539 284.784C47.3159 285.18 47.5469 285.741 47.5469 286.467C47.5469 286.995 47.4002 287.442 47.1069 287.809C46.8135 288.176 46.4065 288.429 45.8859 288.568L47.7889 292H46.6559L44.8519 288.733ZM43.4219 287.919H44.8629C45.3835 287.919 45.7795 287.798 46.0509 287.556C46.3295 287.307 46.4689 286.951 46.4689 286.489C46.4689 286.02 46.3295 285.664 46.0509 285.422C45.7795 285.173 45.3835 285.048 44.8629 285.048H43.4219V287.919Z" fill="black"/>
<path d="M18.07 306.17C17.2367 306.17 16.6067 305.87 16.18 305.27C15.7533 304.663 15.54 303.81 15.54 302.71V302.19C15.54 301.097 15.7633 300.247 16.21 299.64C16.6633 299.033 17.31 298.73 18.15 298.73C19.6367 298.73 20.47 299.563 20.65 301.23L19.72 301.38C19.68 300.787 19.5267 300.33 19.26 300.01C18.9933 299.69 18.62 299.53 18.14 299.53C17.58 299.53 17.1667 299.743 16.9 300.17C16.6333 300.59 16.5 301.247 16.5 302.14V302.65C16.5 303.55 16.6367 304.23 16.91 304.69C17.19 305.143 17.6 305.37 18.14 305.37C18.6267 305.37 19 305.21 19.26 304.89C19.5267 304.57 19.68 304.11 19.72 303.51L20.64 303.7C20.56 304.447 20.3067 305.047 19.88 305.5C19.4533 305.947 18.85 306.17 18.07 306.17ZM26.3012 306.17C25.4478 306.17 24.8012 305.873 24.3612 305.28C23.9278 304.68 23.7112 303.843 23.7112 302.77V302.13C23.7112 301.057 23.9278 300.223 24.3612 299.63C24.8012 299.03 25.4478 298.73 26.3012 298.73C27.1545 298.73 27.7978 299.03 28.2312 299.63C28.6712 300.223 28.8912 301.057 28.8912 302.13V302.77C28.8912 303.843 28.6712 304.68 28.2312 305.28C27.7978 305.873 27.1545 306.17 26.3012 306.17ZM26.3012 305.37C26.8545 305.37 27.2612 305.16 27.5212 304.74C27.7878 304.32 27.9212 303.663 27.9212 302.77V302.13C27.9212 301.237 27.7878 300.58 27.5212 300.16C27.2612 299.74 26.8545 299.53 26.3012 299.53C25.7478 299.53 25.3378 299.74 25.0712 300.16C24.8112 300.58 24.6812 301.237 24.6812 302.13V302.77C24.6812 303.663 24.8112 304.32 25.0712 304.74C25.3378 305.16 25.7478 305.37 26.3012 305.37ZM34.9323 304.3H34.0723L33.4523 301.52C33.399 301.307 33.339 301.01 33.2723 300.63C33.2057 300.25 33.159 299.937 33.1323 299.69H33.0723C33.0857 300.29 33.0923 300.923 33.0923 301.59V306H32.2123V298.9H33.5623L34.3623 302.61L34.4723 303.24H34.5323L34.6423 302.61L35.4423 298.9H36.7923V306H35.9123V301.59C35.9123 300.923 35.919 300.29 35.9323 299.69H35.8723C35.8457 299.937 35.799 300.25 35.7323 300.63C35.6657 301.01 35.6057 301.307 35.5523 301.52L34.9323 304.3ZM41.6335 306H40.7035V298.9H43.0235C43.8902 298.9 44.5002 299.107 44.8535 299.52C45.2068 299.933 45.3835 300.427 45.3835 301C45.3835 301.353 45.3035 301.69 45.1435 302.01C44.9902 302.323 44.7235 302.583 44.3435 302.79C43.9702 302.997 43.4735 303.1 42.8535 303.1H41.6335V306ZM42.8735 302.34C43.4468 302.34 43.8435 302.21 44.0635 301.95C44.2902 301.69 44.4035 301.377 44.4035 301.01C44.4035 300.643 44.2968 300.33 44.0835 300.07C43.8768 299.81 43.5068 299.68 42.9735 299.68H41.6335V302.34H42.8735ZM49.8847 298.9V305.2H53.2847V306H48.9547V298.9H49.8847ZM59.5659 299.65V305.25H61.3459V306H56.8659V305.25H58.6359V299.65H56.8659V298.9H61.3459V299.65H59.5659ZM68.537 303.95H66.067L65.417 306H64.497L66.777 298.9H67.837L70.117 306H69.197L68.537 303.95ZM67.297 299.72C67.1104 300.54 66.7837 301.683 66.317 303.15H68.287C67.8404 301.757 67.517 300.613 67.317 299.72H67.297ZM76.5282 303.73C76.6949 304.123 76.8082 304.433 76.8682 304.66H76.8882C76.8749 304.5 76.8682 304.247 76.8682 303.9V298.9H77.7982V306H76.7082L74.4782 300.89C74.4049 300.73 74.3382 300.563 74.2782 300.39C74.2182 300.217 74.1782 300.103 74.1582 300.05H74.1282C74.1415 300.177 74.1482 300.38 74.1482 300.66V306H73.2182V298.9H74.4382L76.5282 303.73ZM86.3994 298.9V299.7H84.1694V306H83.2294V299.7H80.9994V298.9H86.3994Z" fill="#6B6B6A"/>
<path d="M167.159 451.491L168.765 456.433H173.961L169.757 459.488L171.363 464.43L167.159 461.376L162.954 464.43L164.56 459.488L160.356 456.433H165.552L167.159 451.491Z" fill="#6B6B6A"/>
<path d="M167.159 351.352L168.765 356.295H173.961L169.757 359.349L171.363 364.292L167.159 361.237L162.954 364.292L164.56 359.349L160.356 356.295H165.552L167.159 351.352Z" fill="#6B6B6A"/>
<path d="M142.123 444.779L143.729 449.722H148.925L144.721 452.777L146.326 457.72L142.123 454.664L137.918 457.72L139.524 452.777L135.32 449.722H140.516L142.123 444.779Z" fill="#6B6B6A"/>
<path d="M192.192 358.058L193.798 363H198.994L194.79 366.055L196.396 370.997L192.192 367.943L187.988 370.997L189.593 366.055L185.389 363H190.586L192.192 358.058Z" fill="#6B6B6A"/>
<path d="M123.798 426.457L125.404 431.399H130.6L126.396 434.453L128.003 439.396L123.798 436.341L119.593 439.396L121.199 434.453L116.995 431.399H122.192L123.798 426.457Z" fill="#6B6B6A"/>
<path d="M210.52 376.388L212.127 381.331H217.323L213.119 384.385L214.725 389.328L210.52 386.273L206.316 389.328L207.922 384.385L203.718 381.331H208.914L210.52 376.388ZM117.088 401.42L118.695 406.362H123.891L119.687 409.417L121.292 414.36L117.088 411.305L112.884 414.36L114.49 409.417L110.285 406.362H115.482L117.088 401.42Z" fill="#6B6B6A"/>
<path d="M217.227 401.42L218.833 406.362H224.03L219.825 409.417L221.432 414.36L217.227 411.305L213.023 414.36L214.628 409.417L210.424 406.362H215.621L217.227 401.42Z" fill="#6B6B6A"/>
<path d="M123.798 376.384L125.404 381.326H130.6L126.396 384.381L128.003 389.324L123.798 386.268L119.593 389.324L121.199 384.381L116.995 381.326H122.192L123.798 376.384Z" fill="#6B6B6A"/>
<path d="M210.52 426.453L212.127 431.395H217.323L213.119 434.45L214.725 439.392L210.52 436.337L206.316 439.392L207.922 434.45L203.718 431.395H208.914L210.52 426.453Z" fill="#6B6B6A"/>
<path d="M142.124 358.059L143.73 363.001H148.926L144.722 366.056L146.327 370.998L142.124 367.944L137.919 370.998L139.525 366.056L135.321 363.001H140.517L142.124 358.059Z" fill="#6B6B6A"/>
<path d="M192.193 444.78L193.799 449.723H198.995L194.791 452.777L196.397 457.721L192.193 454.665L187.989 457.721L189.594 452.777L185.39 449.723H190.587L192.193 444.78Z" fill="#6B6B6A"/>
<path d="M652.06 273.403H331.3C330.207 273.403 329.32 274.29 329.32 275.383V541.362C329.32 542.455 330.207 543.342 331.3 543.342H652.06C653.154 543.342 654.04 542.455 654.04 541.362V275.383C654.04 274.29 653.154 273.403 652.06 273.403Z" stroke="#CACACA" stroke-width="0.99"/>
<path d="M343.498 292.187C342.618 292.187 341.94 291.96 341.463 291.505C340.994 291.05 340.708 290.467 340.605 289.756L341.595 289.558C341.69 290.079 341.892 290.504 342.2 290.834C342.508 291.164 342.937 291.329 343.487 291.329C343.927 291.329 344.301 291.234 344.609 291.043C344.924 290.852 345.082 290.533 345.082 290.086C345.082 289.624 344.968 289.298 344.741 289.107C344.521 288.909 344.213 288.755 343.817 288.645L342.772 288.37C342.178 288.209 341.709 287.952 341.364 287.6C341.019 287.241 340.847 286.775 340.847 286.203C340.847 285.814 340.95 285.451 341.155 285.114C341.36 284.777 341.65 284.509 342.024 284.311C342.405 284.106 342.842 284.003 343.333 284.003C344.103 284.003 344.734 284.179 345.225 284.531C345.716 284.883 345.999 285.437 346.072 286.192L345.093 286.478C345.049 285.906 344.866 285.495 344.543 285.246C344.228 284.989 343.835 284.861 343.366 284.861C342.845 284.861 342.468 284.986 342.233 285.235C342.006 285.477 341.892 285.77 341.892 286.115C341.892 286.445 342.002 286.724 342.222 286.951C342.449 287.171 342.739 287.332 343.091 287.435L344.092 287.699C344.723 287.868 345.218 288.113 345.577 288.436C345.944 288.759 346.127 289.261 346.127 289.943C346.127 290.332 346.032 290.698 345.841 291.043C345.658 291.38 345.368 291.655 344.972 291.868C344.576 292.081 344.085 292.187 343.498 292.187ZM355.19 284.19V285.07H352.737V292H351.703V285.07H349.25V284.19H355.19ZM361.031 288.733H359.601V292H358.578V284.19H361.086C361.929 284.19 362.578 284.388 363.033 284.784C363.495 285.18 363.726 285.741 363.726 286.467C363.726 286.995 363.579 287.442 363.286 287.809C362.992 288.176 362.585 288.429 362.065 288.568L363.968 292H362.835L361.031 288.733ZM359.601 287.919H361.042C361.562 287.919 361.958 287.798 362.23 287.556C362.508 287.307 362.648 286.951 362.648 286.489C362.648 286.02 362.508 285.664 362.23 285.422C361.958 285.173 361.562 285.048 361.042 285.048H359.601V287.919ZM369.874 292.187C368.935 292.187 368.224 291.861 367.74 291.208C367.263 290.548 367.025 289.628 367.025 288.447V287.743C367.025 286.562 367.263 285.646 367.74 284.993C368.224 284.333 368.935 284.003 369.874 284.003C370.813 284.003 371.52 284.333 371.997 284.993C372.481 285.646 372.723 286.562 372.723 287.743V288.447C372.723 289.628 372.481 290.548 371.997 291.208C371.52 291.861 370.813 292.187 369.874 292.187ZM369.874 291.307C370.483 291.307 370.93 291.076 371.216 290.614C371.509 290.152 371.656 289.43 371.656 288.447V287.743C371.656 286.76 371.509 286.038 371.216 285.576C370.93 285.114 370.483 284.883 369.874 284.883C369.265 284.883 368.814 285.114 368.521 285.576C368.235 286.038 368.092 286.76 368.092 287.743V288.447C368.092 289.43 368.235 290.152 368.521 290.614C368.814 291.076 369.265 291.307 369.874 291.307ZM379.817 289.503C380 289.936 380.125 290.277 380.191 290.526H380.213C380.198 290.35 380.191 290.071 380.191 289.69V284.19H381.214V292H380.015L377.562 286.379C377.481 286.203 377.408 286.02 377.342 285.829C377.276 285.638 377.232 285.514 377.21 285.455H377.177C377.192 285.594 377.199 285.818 377.199 286.126V292H376.176V284.19H377.518L379.817 289.503ZM387.351 292.187C386.501 292.187 385.844 291.846 385.382 291.164C384.928 290.475 384.7 289.569 384.7 288.447V287.677C384.7 286.526 384.946 285.627 385.437 284.982C385.936 284.329 386.636 284.003 387.538 284.003C388.396 284.003 389.009 284.245 389.375 284.729C389.749 285.206 389.98 285.752 390.068 286.368L389.067 286.511C389.016 286.086 388.866 285.708 388.616 285.378C388.374 285.048 388.004 284.883 387.505 284.883C386.933 284.883 386.501 285.107 386.207 285.554C385.914 286.001 385.767 286.768 385.767 287.853V288.282C385.767 290.291 386.347 291.296 387.505 291.296C387.938 291.296 388.279 291.179 388.528 290.944C388.785 290.702 388.965 290.423 389.067 290.108C389.17 289.785 389.221 289.485 389.221 289.206V288.744H387.263V287.919H390.156V292H389.452L389.298 290.856C388.939 291.743 388.29 292.187 387.351 292.187Z" fill="black"/>
<path d="M345.2 299.7H341.98V301.97H345.03V302.75H341.98V305.2H345.27V306H341.05V298.9H345.2V299.7ZM353.991 298.9V299.7H351.761V306H350.821V299.7H348.591V298.9H353.991ZM361.792 306H360.862V302.76H358.142V306H357.212V298.9H358.142V301.98H360.862V298.9H361.792V306ZM368.164 299.65V305.25H369.944V306H365.464V305.25H367.234V299.65H365.464V298.9H369.944V299.65H368.164ZM375.875 306.17C375.041 306.17 374.411 305.87 373.985 305.27C373.558 304.663 373.345 303.81 373.345 302.71V302.19C373.345 301.097 373.568 300.247 374.015 299.64C374.468 299.033 375.115 298.73 375.955 298.73C377.441 298.73 378.275 299.563 378.455 301.23L377.525 301.38C377.485 300.787 377.331 300.33 377.065 300.01C376.798 299.69 376.425 299.53 375.945 299.53C375.385 299.53 374.971 299.743 374.705 300.17C374.438 300.59 374.305 301.247 374.305 302.14V302.65C374.305 303.55 374.441 304.23 374.715 304.69C374.995 305.143 375.405 305.37 375.945 305.37C376.431 305.37 376.805 305.21 377.065 304.89C377.331 304.57 377.485 304.11 377.525 303.51L378.445 303.7C378.365 304.447 378.111 305.047 377.685 305.5C377.258 305.947 376.655 306.17 375.875 306.17ZM385.336 303.95H382.866L382.216 306H381.296L383.576 298.9H384.636L386.916 306H385.996L385.336 303.95ZM384.096 299.72C383.909 300.54 383.583 301.683 383.116 303.15H385.086C384.639 301.757 384.316 300.613 384.116 299.72H384.096ZM391.287 298.9V305.2H394.687V306H390.357V298.9H391.287ZM407.639 306H406.709V298.9H409.029C409.896 298.9 410.506 299.107 410.859 299.52C411.213 299.933 411.389 300.427 411.389 301C411.389 301.353 411.309 301.69 411.149 302.01C410.996 302.323 410.729 302.583 410.349 302.79C409.976 302.997 409.479 303.1 408.859 303.1H407.639V306ZM408.879 302.34C409.453 302.34 409.849 302.21 410.069 301.95C410.296 301.69 410.409 301.377 410.409 301.01C410.409 300.643 410.303 300.33 410.089 300.07C409.883 299.81 409.513 299.68 408.979 299.68H407.639V302.34H408.879ZM416.891 303.03H415.591V306H414.661V298.9H416.941C417.707 298.9 418.297 299.08 418.711 299.44C419.131 299.8 419.341 300.31 419.341 300.97C419.341 301.45 419.207 301.857 418.941 302.19C418.674 302.523 418.304 302.753 417.831 302.88L419.561 306H418.531L416.891 303.03ZM415.591 302.29H416.901C417.374 302.29 417.734 302.18 417.981 301.96C418.234 301.733 418.361 301.41 418.361 300.99C418.361 300.563 418.234 300.24 417.981 300.02C417.734 299.793 417.374 299.68 416.901 299.68H415.591V302.29ZM425.572 299.65V305.25H427.352V306H422.872V305.25H424.642V299.65H422.872V298.9H427.352V299.65H425.572ZM434.333 303.73C434.5 304.123 434.613 304.433 434.673 304.66H434.693C434.68 304.5 434.673 304.247 434.673 303.9V298.9H435.603V306H434.513L432.283 300.89C432.21 300.73 432.143 300.563 432.083 300.39C432.023 300.217 431.983 300.103 431.963 300.05H431.933C431.946 300.177 431.953 300.38 431.953 300.66V306H431.023V298.9H432.243L434.333 303.73ZM441.484 306.17C440.651 306.17 440.021 305.87 439.594 305.27C439.167 304.663 438.954 303.81 438.954 302.71V302.19C438.954 301.097 439.177 300.247 439.624 299.64C440.077 299.033 440.724 298.73 441.564 298.73C443.051 298.73 443.884 299.563 444.064 301.23L443.134 301.38C443.094 300.787 442.941 300.33 442.674 300.01C442.407 299.69 442.034 299.53 441.554 299.53C440.994 299.53 440.581 299.743 440.314 300.17C440.047 300.59 439.914 301.247 439.914 302.14V302.65C439.914 303.55 440.051 304.23 440.324 304.69C440.604 305.143 441.014 305.37 441.554 305.37C442.041 305.37 442.414 305.21 442.674 304.89C442.941 304.57 443.094 304.11 443.134 303.51L444.054 303.7C443.974 304.447 443.721 305.047 443.294 305.5C442.867 305.947 442.264 306.17 441.484 306.17ZM450.175 299.65V305.25H451.955V306H447.475V305.25H449.245V299.65H447.475V298.9H451.955V299.65H450.175ZM456.846 306H455.916V298.9H458.236C459.103 298.9 459.713 299.107 460.066 299.52C460.42 299.933 460.596 300.427 460.596 301C460.596 301.353 460.516 301.69 460.356 302.01C460.203 302.323 459.936 302.583 459.556 302.79C459.183 302.997 458.686 303.1 458.066 303.1H456.846V306ZM458.086 302.34C458.66 302.34 459.056 302.21 459.276 301.95C459.503 301.69 459.616 301.377 459.616 301.01C459.616 300.643 459.51 300.33 459.296 300.07C459.09 299.81 458.72 299.68 458.186 299.68H456.846V302.34H458.086ZM465.098 298.9V305.2H468.498V306H464.168V298.9H465.098ZM476.419 299.7H473.199V301.97H476.249V302.75H473.199V305.2H476.489V306H472.269V298.9H476.419V299.7ZM482.6 306.17C481.8 306.17 481.183 305.963 480.75 305.55C480.323 305.137 480.063 304.607 479.97 303.96L480.87 303.78C480.957 304.253 481.14 304.64 481.42 304.94C481.7 305.24 482.09 305.39 482.59 305.39C482.99 305.39 483.33 305.303 483.61 305.13C483.897 304.957 484.04 304.667 484.04 304.26C484.04 303.84 483.937 303.543 483.73 303.37C483.53 303.19 483.25 303.05 482.89 302.95L481.94 302.7C481.4 302.553 480.973 302.32 480.66 302C480.347 301.673 480.19 301.25 480.19 300.73C480.19 300.377 480.283 300.047 480.47 299.74C480.657 299.433 480.92 299.19 481.26 299.01C481.607 298.823 482.003 298.73 482.45 298.73C483.15 298.73 483.723 298.89 484.17 299.21C484.617 299.53 484.873 300.033 484.94 300.72L484.05 300.98C484.01 300.46 483.843 300.087 483.55 299.86C483.263 299.627 482.907 299.51 482.48 299.51C482.007 299.51 481.663 299.623 481.45 299.85C481.243 300.07 481.14 300.337 481.14 300.65C481.14 300.95 481.24 301.203 481.44 301.41C481.647 301.61 481.91 301.757 482.23 301.85L483.14 302.09C483.713 302.243 484.163 302.467 484.49 302.76C484.823 303.053 484.99 303.51 484.99 304.13C484.99 304.483 484.903 304.817 484.73 305.13C484.563 305.437 484.3 305.687 483.94 305.88C483.58 306.073 483.133 306.17 482.6 306.17Z" fill="#6B6B6A"/>
<path fill-rule="evenodd" clip-rule="evenodd" d="M496.5 454.816C506.637 461.855 519.075 466 532.515 466C541.602 466 550.231 464.105 558 460.703C556.005 438.847 541.787 420.378 521.985 411.705C522.144 409.96 522.225 408.193 522.225 406.408C522.225 386.469 512.08 368.818 496.5 358C480.92 368.818 470.775 386.469 470.775 406.408C470.775 408.193 470.856 409.96 471.015 411.705C451.213 420.378 436.995 438.847 435 460.703C442.769 464.105 451.398 466 460.485 466C473.925 466 486.363 461.855 496.5 454.816ZM473.768 413.258C475.704 428.896 484.189 442.593 496.5 451.722C506.503 444.304 513.98 433.871 517.471 421.831C517.972 420.102 518.391 418.34 518.723 416.549C518.925 415.462 519.095 414.365 519.232 413.258C512.905 410.714 506.022 409.201 498.808 408.933C498.043 408.905 497.273 408.891 496.5 408.891C488.446 408.891 480.767 410.444 473.768 413.258ZM473.51 410.676C480.616 407.923 488.375 406.408 496.5 406.408C504.626 406.408 512.384 407.923 519.49 410.676C519.598 409.267 519.653 407.844 519.653 406.408C519.653 387.95 510.583 371.537 496.5 361.094C482.417 371.537 473.347 387.95 473.347 406.408C473.347 407.844 473.402 409.267 473.51 410.676ZM498.658 453.249C510.987 443.875 519.525 430.063 521.687 414.309C539.732 422.515 552.785 439.263 555.247 459.151C548.251 461.963 540.574 463.517 532.515 463.517C519.924 463.517 508.251 459.72 498.658 453.249ZM494.343 453.248C484.75 459.72 473.076 463.517 460.485 463.517C452.426 463.517 444.749 461.963 437.753 459.151C440.215 439.263 453.268 422.515 471.313 414.309C473.475 430.063 482.013 443.875 494.343 453.248Z" fill="#909090"/>
</g>
</g>
<defs>
<clipPath id="clip0_0_649">
<rect width="657.36" height="547.47" fill="white" transform="translate(0.640015)"/>
</clipPath>
<clipPath id="clip1_0_649">
<rect width="657.36" height="547.47" fill="white" transform="translate(0.640015)"/>
</clipPath>
</defs>
</svg>
