<svg width="52" height="17" viewBox="0 0 52 17" fill="none" xmlns="http://www.w3.org/2000/svg">
<path d="M13.4842 13V2.778H20.4244V3.6119H14.614V6.9475H20.3572V7.7814H14.614V13H13.4842ZM23.0814 16.0935C22.6331 16.0935 22.2251 15.9007 21.8575 15.5152C21.4898 15.1386 21.1401 14.6633 20.8084 14.0894L21.7499 13.7398C22.0368 14.2867 22.2699 14.6813 22.4493 14.9234C22.6286 15.1655 22.79 15.2865 22.9335 15.2865C23.05 15.2865 23.1531 15.2058 23.2428 15.0444C23.3325 14.892 23.4535 14.6275 23.606 14.2509L23.7405 13.9146L24.1574 12.8924L21.185 5.8715H22.261L24.6954 11.7357L26.8878 5.8715H27.9503L24.7761 13.9281C24.7582 13.9639 24.7268 14.0491 24.682 14.1836C24.5026 14.6499 24.3502 15.0041 24.2247 15.2462C24.0991 15.4883 23.9422 15.69 23.7539 15.8514C23.5746 16.0128 23.3504 16.0935 23.0814 16.0935ZM33.9363 13V9.1802C33.9363 8.25663 33.8197 7.57517 33.5866 7.1358C33.3624 6.68747 32.9813 6.4633 32.4433 6.4633C31.7977 6.4633 31.2642 6.7592 30.8428 7.351C30.4214 7.93383 30.112 8.72738 29.9147 9.73165V13H28.8387V5.8715H29.9147V8.19835C30.1927 7.42722 30.5648 6.82645 31.0311 6.39605C31.5063 5.95668 32.0847 5.737 32.7661 5.737C33.6538 5.737 34.2501 6.05083 34.555 6.6785C34.8599 7.2972 35.0123 7.9966 35.0123 8.7767V13H33.9363ZM41.6062 11.776V11.2649C41.3461 11.8298 40.983 12.2827 40.5167 12.6234C40.0504 12.9641 39.5393 13.1345 38.9834 13.1345C38.4364 13.1345 37.9343 12.9776 37.477 12.6637C37.0197 12.3499 36.6566 11.915 36.3876 11.3591C36.1186 10.7942 35.9841 10.1531 35.9841 9.43575C35.9841 8.71842 36.1186 8.08178 36.3876 7.52585C36.6566 6.96095 37.0197 6.52158 37.477 6.20775C37.9343 5.89392 38.4364 5.737 38.9834 5.737C39.5393 5.737 40.0504 5.90737 40.5167 6.2481C40.983 6.58883 41.3461 7.04165 41.6062 7.60655V2.778H42.6822V13H41.6734L41.6062 11.776ZM39.36 12.4216C39.7545 12.4216 40.1132 12.3051 40.436 12.0719C40.7678 11.8388 41.0368 11.525 41.243 11.1304C41.4492 10.7269 41.5703 10.2831 41.6062 9.7989V9.1264C41.5703 8.6422 41.4492 8.20283 41.243 7.8083C41.0368 7.4048 40.7678 7.08648 40.436 6.85335C40.1132 6.62022 39.7545 6.50365 39.36 6.50365C38.9565 6.50365 38.5754 6.62918 38.2168 6.88025C37.8671 7.12235 37.5846 7.47205 37.3694 7.92935C37.1632 8.37768 37.0601 8.88878 37.0601 9.46265C37.0601 10.0365 37.1632 10.5521 37.3694 11.0094C37.5846 11.4577 37.8671 11.8074 38.2168 12.0585C38.5754 12.3006 38.9565 12.4216 39.36 12.4216ZM43.6548 9.3685C43.6548 8.70497 43.7982 8.09523 44.0852 7.5393C44.3721 6.98337 44.7756 6.544 45.2957 6.2212C45.8247 5.8984 46.4255 5.737 47.098 5.737C47.7705 5.737 48.3667 5.8984 48.8868 6.2212C49.4158 6.544 49.8238 6.98337 50.1108 7.5393C50.3977 8.09523 50.5412 8.70497 50.5412 9.3685C50.5412 10.041 50.3932 10.6687 50.0973 11.2515C49.8014 11.8254 49.3889 12.2827 48.8599 12.6234C48.3398 12.9641 47.7525 13.1345 47.098 13.1345C46.4434 13.1345 45.8516 12.9641 45.3226 12.6234C44.8025 12.2827 44.3945 11.8254 44.0986 11.2515C43.8027 10.6687 43.6548 10.041 43.6548 9.3685ZM44.7308 9.3685C44.7308 10.2562 44.9415 10.987 45.3629 11.5608C45.7843 12.1257 46.3627 12.4082 47.098 12.4082C47.8332 12.4082 48.4116 12.1257 48.833 11.5608C49.2544 10.987 49.4652 10.2562 49.4652 9.3685C49.4652 8.49873 49.25 7.79933 48.8196 7.2703C48.3981 6.7323 47.8243 6.4633 47.098 6.4633C46.3717 6.4633 45.7933 6.7323 45.3629 7.2703C44.9415 7.79933 44.7308 8.49873 44.7308 9.3685Z" fill="white"/>
<path d="M4.51875 9.5V13M4.5 4V7.5M0 8.5H3.5M5.5 8.5H9" stroke="white" stroke-width="0.8"/>
</svg>
