<svg width="64" height="150" viewBox="0 0 64 150" fill="none" xmlns="http://www.w3.org/2000/svg">
<mask id="mask0_0_668" style="mask-type:alpha" maskUnits="userSpaceOnUse" x="0" y="0" width="64" height="150">
<path d="M4.56 14.6249C4.56 14.6249 -4.12428 60.0411 4.56 86.8949C9.9654 103.607 14.2313 113.523 26.34 126.247C38.2834 138.798 63.96 149.76 63.96 149.76V0.764893C63.96 0.764893 46.3113 8.93635 34.26 11.6549C22.8898 14.22 4.56 14.6249 4.56 14.6249Z" fill="#6B6B6A"/>
</mask>
<g mask="url(#mask0_0_668)">
<path d="M-165.256 158.699L2.75228 -9.30933M-161.588 158.699L6.42023 -9.30933M-157.919 158.699L10.0892 -9.30933M-154.251 158.699L13.7581 -9.30933M-150.582 158.699L17.427 -9.30933M-146.914 158.699L21.095 -9.30933M-143.245 158.699L24.7639 -9.30933M-139.577 158.699L28.4319 -9.30933M-135.908 158.699L32.1008 -9.30933M-132.239 158.699L35.7698 -9.30933M-128.571 158.699L39.4377 -9.30933M-124.902 158.699L43.1067 -9.30933M-121.233 158.699L46.7746 -9.30933M-117.564 158.699L50.4435 -9.30933M-113.896 158.699L54.1115 -9.30933M-110.228 158.699L57.7804 -9.30933M-106.559 158.699L61.4494 -9.30933M-102.891 158.699L65.1173 -9.30933M-99.2217 158.699L68.7873 -9.30933M-95.5537 158.699L72.4552 -9.30933M-91.8848 158.699L76.1241 -9.30933M-88.2168 158.699L79.7921 -9.30933M-84.5479 158.699L83.461 -9.30933M-80.88 158.699L87.129 -9.30933M-77.211 158.699L90.7979 -9.30933M-73.5421 158.699L94.4669 -9.30933M-69.8741 158.699L98.1348 -9.30933M-66.2042 158.699L101.804 -9.30933M-62.5362 158.699L105.472 -9.30933M-58.8673 158.699L109.141 -9.30933M-55.1994 158.699L112.809 -9.30933M-51.5304 158.699L116.478 -9.30933M-47.8625 158.699L120.145 -9.30933M-44.1935 158.699L123.815 -9.30933M-40.5246 158.699L127.484 -9.30933M-36.8566 158.699L131.152 -9.30933M-33.1877 158.699L134.821 -9.30933M-29.5198 158.699L138.489 -9.30933M-25.8508 158.699L142.158 -9.30933M-22.1828 158.699L145.826 -9.30933M-18.5139 158.699L149.495 -9.30933M-14.845 158.699L153.164 -9.30933M-11.176 158.699L156.832 -9.30933M-7.5071 158.699L160.501 -9.30933M-3.83915 158.699L164.169 -9.30933M-0.170214 158.699L167.838 -9.30933M3.49775 158.699L171.506 -9.30933M7.16669 158.699L175.175 -9.30933M10.8356 158.699L178.844 -9.30933M14.5036 158.699L182.513 -9.30933M18.1725 158.699L186.181 -9.30933M21.8405 158.699L189.849 -9.30933M25.5094 158.699L193.518 -9.30933M29.1774 158.699L197.186 -9.30933M32.8463 158.699L200.855 -9.30933M36.5142 158.699L204.523 -9.30933M40.1832 158.699L208.192 -9.30933M43.8521 158.699L211.861 -9.30933M47.5211 158.699L215.529 -9.30933M51.19 158.699L219.198 -9.30933M54.858 158.699L222.866 -9.30933M58.5269 158.699L226.535 -9.30933M62.1948 158.699L230.203 -9.30933" stroke="#6B6B6A" stroke-width="0.495"/>
</g>
</svg>
