<svg width="123" height="108" viewBox="0 0 123 108" fill="none" xmlns="http://www.w3.org/2000/svg">
<path fill-rule="evenodd" clip-rule="evenodd" d="M61.5004 96.8163C71.6373 103.855 84.0748 108 97.5154 108C106.602 108 115.231 106.105 123 102.703C121.005 80.8469 106.787 62.3782 86.9847 53.7053C87.144 51.9601 87.2253 50.1934 87.2253 48.4083C87.2253 28.4695 77.08 10.8178 61.5001 0C45.9202 10.8178 35.7748 28.4695 35.7748 48.4083C35.7748 50.1934 35.8561 51.9601 36.0154 53.7052C16.213 62.3781 1.99463 80.8468 0 102.703C7.76905 106.105 16.3976 108 25.4846 108C38.9253 108 51.3635 103.855 61.5004 96.8163ZM38.7683 55.2577C40.7042 70.8957 49.1891 84.593 61.5 93.722C71.5031 86.3044 78.9802 75.8707 82.4705 63.8305C82.9716 62.1018 83.3905 60.34 83.723 58.5493C83.9247 57.4624 84.0946 56.3649 84.2317 55.2577C77.9047 52.7143 71.022 51.2005 63.8084 50.9334C63.0426 50.9051 62.2731 50.8908 61.5 50.8908C53.4457 50.8908 45.767 52.4443 38.7683 55.2577ZM38.51 52.6762C45.6156 49.9228 53.3745 48.4078 61.5 48.4078C69.6255 48.4078 77.3845 49.9228 84.4901 52.6762C84.5979 51.2672 84.6528 49.8439 84.6528 48.4083C84.6528 29.9504 75.583 13.5373 61.5001 3.09381C47.4172 13.5373 38.3473 29.9504 38.3473 48.4083C38.3473 49.8439 38.4022 51.2671 38.51 52.6762ZM63.6576 95.2485C75.987 85.8747 84.5254 72.0631 86.6875 56.309C104.732 64.5147 117.785 81.2634 120.247 101.151C113.251 103.963 105.574 105.517 97.5154 105.517C84.9238 105.517 73.2505 101.72 63.6576 95.2485ZM59.3425 95.2485C49.7495 101.72 38.0762 105.517 25.4846 105.517C17.4256 105.517 9.7485 103.963 2.7528 101.151C5.21457 81.2634 18.2679 64.5146 36.3126 56.3089C38.4747 72.063 47.0131 85.8747 59.3425 95.2485Z" fill="#909090"/>
</svg>
